# xmcd CD database file generated by Grip 3.3.0
# 
# Track frame offsets:
#       183
#       20875
#       36250
#       48618
#       59033
#       69200
#       80203
#       95505
#       110928
#       122798
#       138520
#       155153
# 
# Disc length: 2282 seconds
# 
# Revision: 3
# Processed by: cddbd v1.5.1PL0 Copyright (c) Steve Scherf et al.
# Submitted via: Grip 3.3.0
# 
DISCID=bd08e80c
DTITLE=Marc Bolan And T-Rex - Dandy In The Underworld
DYEAR=1977
DGENRE=Rock
TTITLE0=Dandy In The Underworld
TTITLE1=Crimson Moon
TTITLE2=Universe
TTITLE3=I'm A Fool For You Girl
TTITLE4=I Love To Boogie
TTITLE5=Visions Of Domino
TTITLE6=Jason B. Sad
TTITLE7=Groove A Little
TTITLE8=The Soul Of My Suit
TTITLE9=Hang-Ups
TTITLE10=Pain and Love
TTITLE11=Teen Riot Structure
EXTD=YEAR: 1994
EXTT0=
EXTT1=
EXTT2=
EXTT3=
EXTT4=
EXTT5=
EXTT6=
EXTT7=
EXTT8=
EXTT9=
EXTT10=
EXTT11=
PLAYORDER=
